<svg xmlns="http://www.w3.org/2000/svg" viewBox="0 0 247.375 238.029"><title>New York Islanders secondary dark logo</title><g fill="#00539B"><path d="M226.53 211.146c-3.645 0-6.6 2.955-6.6 6.6s2.97 6.6 6.6 6.6c3.66 0 6.616-2.97 6.616-6.6 0-3.646-2.954-6.6-6.616-6.6zm0 11.803c-2.86 0-5.187-2.33-5.187-5.19s2.345-5.186 5.187-5.186c2.875 0 5.187 2.33 5.187 5.187s-2.312 5.188-5.187 5.188z"/><path d="M229.244 216.22a2.244 2.244 0 0 0-2.248-2.248h-3.18v7.548h1.43v-3.05h1.01l1.43 3.05h1.558l-1.493-3.18a2.253 2.253 0 0 0 1.494-2.12zm-2.232.82h-1.75v-1.67h1.75c.466 0 .835.368.835.834s-.37.835-.835.836z"/></g><path d="M123.688 0C55.372 0 0 53.284 0 119.014s55.372 119.014 123.688 119.014 123.687-53.284 123.687-119.014S192.003 0 123.688 0z" fill="#F47D30"/><path d="M239.394 111.98c-.128-1.96-.24-3.918-.466-5.846l.048-.016c-3.5-29.1-18.66-54.762-40.903-72.603-2.41-1.943-4.93-3.774-7.516-5.524-18.917-12.797-41.963-20.36-66.87-20.36a120.224 120.224 0 0 0-43.488 8.11 117.145 117.145 0 0 0-30.77 17.663C23.88 53.83 7.596 84.6 7.596 119.013c0 61.524 51.967 111.387 116.092 111.387S239.78 180.536 239.78 119.014c0-2.36-.112-4.72-.257-7.066" fill="#00539B"/><path d="M112.27 181.982l15.85-3.774a4.726 4.726 0 0 0 3.195-2.618l9.844-20.94 8.702-18.517 6.12-13.056 3.018-6.424 6.232-13.233 32.825-69.873c-2.41-1.943-4.93-3.774-7.516-5.524l-20.57 41.754-24.682-53.172c-.29-.642-.915-1.028-1.622-1.028h-42.83c-.996 0-1.783.803-1.783 1.783v34.816L80.2 15.738a117.207 117.207 0 0 0-30.77 17.665v64.8c0 .995.803 1.782 1.783 1.782h24.33a1.79 1.79 0 0 0 1.783-1.783V69.247l17.906 29.87c.336.546.898.883 1.54.883h27.268c.996 0 1.783-.803 1.783-1.783V42.01l28.055 60.432-3.356 6.81-19.72 40.115-3.39 6.857c-.69 1.43-2.055 2.393-3.628 2.618l-53.3 7.34c-.466.063-.9.32-1.188.69-.29.385-.4.867-.337 1.35l3.242 21.31c.08.497.353.946.77 1.22.42.273.932.353 1.414.257l5.283-1.255" fill="#FFF"/><g fill="#F47D30"><path d="M142.396 152.048l-10.326-5.267-1.27 2.588 10.375 5.283 1.22-2.6v-.002zm4.08-8.704l-10.166-5.203-1.27 2.604 10.23 5.203 1.205-2.602zm-13.554 1.702l10.294 5.235 1.22-2.6-10.245-5.22-1.267 2.587zM95.68 185.933l-.93-5.894a.794.794 0 0 0-.595-.644l-10.374-2.52a.791.791 0 0 0-.962.56l-3.132 12.302-5.46 21.293a.8.8 0 0 0 .53.948l6.102 1.99c.21.065.434.033.626-.063a.758.758 0 0 0 .37-.498l1.59-6.232 8.35 2.714 1.204 7.58c.048.29.257.53.53.625l6.375 2.072a.79.79 0 0 0 .77-.145c.21-.193.322-.45.274-.74L95.68 185.93v.003z"/><path d="M150.538 109.25c-7.146-1.124-16.043 3.613-22.306.29-7.194-.226-15.593.256-21.953-3.116-4.16-.658-8.594-.61-12.368-2.12-2.023 3.79-4.32-1.237-6.73-.498-1.444.45-2.665 2.04-2.376 3.758-.755 3.918-5.508 1.638-7.965 3.276-4.496 2.553-7-3.902-11.305-3.838-2.94-.803-6.424-.434-8.062 2.553-2.52.642-3.806-2.65-6.68-1.59-1.992-1.237.898-2.072.144-3.58-1.638-1.784-4.69-3.1-7.002-1.59-.418 3.066 2.875 5.716 1.124 8.96-1.703.337-1.607-2.152-3.068-2.746-1.622-.79-1.702 1.22-2.586 2.005-3.212-.145-2.537-3.726-3.565-5.685-3.725-.577-6.712 1.703-9.795 3.052-2.152 1.654-.74 5.17-2.586 6.89-1.446-1.093-1.3-3.165-2.73-4.45-1.205-.802-2.65-1.364-4.144-.85-1.38.337-1.767 1.494-2.056 2.698.033.723.756 1.285 1.543 1.076.915.225 1.638 1.3 1.204 2.216-.466.658-.787 1.96-1.91 1.718-1.22-1.156-2.956-2.794-4.674-2.088-.723.642 0 1.526 0 2.216-.787 2.65 1.14 4.175 2.57 6.038.48 2.072.69 5.06-.884 6.568-2.12.418-2.668 2.778-2.86 4.56.497 1.8 2.472 1.67 3.21 3.165.37 1.22-.963 2.15-2.055 2.84a98.56 98.56 0 0 0 1.46 6.054c1.302-.514 2.78-.996 3.63-.867.723.353 1.204.996 1.204 1.718.706 1.365 2.15 2.714 3.79 1.927 1.653-.707 3.147-2.987 4.93-2.056v20.54l5.443 7.804c1.35 1.975 2.232 1.494 2.232-.193v-28.62c2.86-.08 6.102.226 8.736-.834 5.22.37 11.45 1.815 15.98-1.156 4-.723 7.724-2.072 12.028-2.056 2.938-.224 5.49 1.077 8.237.884 4.288-4.85 10.374.9 15.45-2.184 3.95-2.007 7.306 1.51 11.53.867 2.65-.032 6.664-2.987 8.96.546 1.927.947 4.657.594 6.31-.626 1.013-3.71 5.284-2.28 8.095-3.132 1.863-.4 5.508-2.296 7.98-2.136l.515-1.03 10.133 5.156 1.22-2.603-10.084-5.14 12.082-24.597.002.004zm17.216 2.473c2.89-3.806 10.246.74 11.193-5.123 1.124-3.067 4.577-1.927 6.73-3.437.64-1.124-.5-1.927-.724-2.94 2.81-3.05 6.6-5.186 9.62-8.35 2.167-2.12 5.54-1.638 8.318-1.686 1.303-.787 3.166-1.927 3.455-3.437l-.37-.498c-3.95-.578-8.22.128-11.867 1.333-4.11 3.694-8.624 6.36-13.538 7.837-3.357 4.256-10.343 6.247-15.32 7.965l-6.232 13.25c3.147-.835 7.323-3.083 8.736-4.914z"/><path d="M54.167 161.25l-11.08-9.99c-4.29-3.853-7.276-.465-7.276 2.008v10.326c0 1.975.66 3.132 1.56 4.32l10.037 13.088c.562.74.787 1.477.787 2.345v1.46c0 1.157-1.028 1.06-1.83.338l-2.17-1.847c-.802-.594-.722-1.83-.722-2.89v-1.334c0-.707-.754-1.975-1.51-2.586l-5.01-4.593c-.77-.723-1.14-.112-1.14 1.83v5.975c0 1.574 1.013 4.705 3.373 6.825l11.482 10.342c2.794 2.49 5.187.064 5.187-5.685V184.6c0-3.276-1.46-6.568-3.164-8.8l-8.43-11s-.772-.997-.772-2.297v-1.14s.305-1.654 1.638-.45l2.152 1.927c.546.514.93 1.3.93 2.232v1.558c0 .915.242 1.59 1.077 2.36l4.047 3.63c1.702 1.542 2.537.434 2.537-.915v-6.2c-.03-2.28-1.01-3.645-1.7-4.255h-.003zm18.725 42.717l-6.086-3.613V170.05c0-.337-.177-.674-.466-.867l-5.685-3.372a1.01 1.01 0 0 0-.996 0c-.307.18-.53.516-.53.885v35.844c0 .336.19.673.48.85l12.27 7.275a.961.961 0 0 0 .995 0 .963.963 0 0 0 .498-.867v-4.978c0-.355-.193-.66-.48-.853zm78.82-23.735l-15.932 3.164c-.45.096-.803.498-.803.98v35.812c0 .29.145.562.353.755.21.193.514.273.82.225l15.56-2.794c7.676-1.365 7.676-5.974 7.676-6.97v-28.087c0-.002 0-4.61-7.675-3.085h.002zm27.412-10.696a.782.782 0 0 0-.77-.048l-14.358 7.018a.753.753 0 0 0-.434.707v36.053c0 .29.128.53.353.674a.785.785 0 0 0 .755.064l14.357-6.472c.305-.128.466-.4.466-.723v-5.093a.814.814 0 0 0-.353-.674c-.24-.145-.498-.177-.755-.064l-6.038 2.73c-.257.11-.53.08-.755-.065s-.353-.385-.353-.658v-6.825c0-.32.19-.594.464-.74l7.323-3.29a.753.753 0 0 0 .466-.724v-5.124a.86.86 0 0 0-.353-.674.777.777 0 0 0-.77-.032l-5.99 2.94c-.257.11-.53.095-.77-.05s-.37-.384-.37-.673v-7.29c0-.306.177-.58.434-.708l7.387-3.614a.787.787 0 0 0 .436-.723v-5.267a.774.774 0 0 0-.37-.66l-.002.003zm17.31 11.724s4.498-3.356 4.498-9.46v-9.442c0-5.01-3.212-5.476-6.873-2.955l-11.966 8.254a.77.77 0 0 0-.337.658v35.65c0 .306.16.563.418.708.257.145.562.112.82-.048l6.085-4.143a.758.758 0 0 0 .354-.642v-13.747l1.253-.883 6.68 8.752c.258.337.724.4 1.077.177l4.448-3.02a.826.826 0 0 0 .337-.53.71.71 0 0 0-.163-.61l-6.633-8.72zm16.767-41.208l-7.722 8.527c-1.975 2.23-2.41 4.59-2.41 7.32v3.63c0 2.537.515 4.834 3.79 5.524l4.24.947c1.366.32 2.12.69 2.12 1.67v.948c0 1.493-.336 1.846-.98 2.472s-2.07 2.12-2.07.257v-1.59c0-1.318-.547-1.318-1.398-.467l-4.883 5.01c-.578.514-.835 1.14-.835 2.168v3.197c0 5.75 2.97 6.89 5.99 2.89l7.307-9.65c3.017-3.968 3.017-7.934 3.017-10.23 0-2.73-2.345-3.855-4.015-4.16l-3.58-.61c-1.27-.24-1.623-1.108-1.623-2.345v-1.943c0-.595 0-2.153 1.027-3.23l.723-.738c.756-.77 1.286-.756 1.286.625v2.81c0 .578.337.915.85.37l4.465-4.61c.757-.787.853-2.007.853-2.842v-4.69c.016-4.845-3.324-4.396-6.15-1.264l-.002.002zm-50.504 4.818c-9.025 0-16.332 2.457-16.332 5.508v9.057c0 3.035 7.307 5.508 16.332 5.508 9.01 0 16.332-2.457 16.332-5.508v-9.057c-.016-3.035-7.34-5.508-16.332-5.508zm-2.858-12.912c3.485 2.666 4.063-2.425 6.89-2.714 1.782-.4 3.275 1.156 4.4 2.44 4.24 1.816 9.345.61 12.782-2.247 3.693-1.574 8.414-.93 12.172-2.537 2.505-1.67 4.93-3.645 8.463-3.05 10.47-3.614 25.438-8.785 36.326-12.607-.126-1.943.243-3.164 0-5.09l-4.35.818c-1.477 5.51-7.82 1.85-10.487 5.767-3.42.21-7.13.482-8.945 3.918-1.092.337-2.666.337-3.083-.996.74-3.15-4.4-4.257-2.04-7.613-.145-1.43-1.863-1.59-2.955-1.14-2.28.835-2.442 3.276-2.715 5.267-3.1.562-3.372-4.866-6.745-3.597-3.453 3.292-7.805 4.802-12.767 3.918-8.784-.674-11.69 10.776-19.19 13.168-3.23.514-8.08-1.35-11.596-2.602l-6.12 13.057 3.582-.9c2.36-.544 4.224-2.118 6.376-3.258l.002-.002zm-30.08 51.84l-5.684-.675a.972.972 0 0 0-.77.24.979.979 0 0 0-.338.756V204l-10.487-21.776c-.05-.096-.146-.177-.21-.24-.16-.178-.337-.306-.578-.322l-8.253-.98a.995.995 0 0 0-1.125.98v37.98c0 .498.353.93.85.996l5.686.787a1.03 1.03 0 0 0 .803-.24c.21-.194.337-.467.337-.756v-23.047l12.397 24.2c.193.354.546.563.947.547l6.36-.368a1 1 0 0 0 .93-.996v-35.972c.017-.53-.368-.933-.866-.996z"/></g><path d="M148.37 188.213l-5.7 1.124v24.09l6.053-1.077c3.003-.53 3.003-3.918 3.003-3.918v-17.794c-.015 0-.015-3.1-3.356-2.425zm43.906-19.88l-2.473 1.717a.727.727 0 0 0-.337.642v6.343c0 .305.16.562.418.707.257.145.562.112.82-.048l1.717-1.188c.917-.642 1.67-2.152 1.67-3.437v-3.696c-.014-1.075-.817-1.734-1.813-1.043v.003zM90.574 202.248L88.31 187.97l-3.164 12.494 5.428 1.784zM33.37 147.293v-7.773l-7.675-6.744v15c2.344-.626 5.235.177 7.676-.482z" fill="#00539B"/><ellipse cx="162.695" cy="150.394" rx="16.332" ry="5.508" fill="#FFF"/></svg>